<svg width="14" height="18" viewBox="0 0 14 18" fill="none" xmlns="http://www.w3.org/2000/svg">
<path d="M7 9.01314e-09C5.15555 -9.48505e-05 3.3856 0.748581 2.07484 2.08331C0.764077 3.41803 0.0184445 5.23093 0 7.12798C0 12.06 6.16875 17.5499 6.43125 17.7839C6.58974 17.9234 6.79144 18 7 18C7.20856 18 7.41026 17.9234 7.56875 17.7839C7.875 17.5499 14 12.06 14 7.12798C13.9816 5.23093 13.2359 3.41803 11.9252 2.08331C10.6144 0.748581 8.84445 -9.48505e-05 7 9.01314e-09ZM7 15.8849C5.53875 14.454 1.75 10.485 1.75 7.12798C1.75 5.69581 2.30312 4.32231 3.28769 3.30961C4.27226 2.29692 5.60761 1.72799 7 1.72799C8.39239 1.72799 9.72775 2.29692 10.7123 3.30961C11.6969 4.32231 12.25 5.69581 12.25 7.12798C12.25 10.458 8.46125 14.454 7 15.8849Z" fill="white"/>
</svg>
