<svg width="14" height="11" viewBox="0 0 14 11" fill="none" xmlns="http://www.w3.org/2000/svg">
<path d="M11.9 0H2.1C1.54305 0 1.0089 0.217299 0.615076 0.604092C0.221249 0.990886 0 1.51549 0 2.0625V8.9375C0 9.48451 0.221249 10.0091 0.615076 10.3959C1.0089 10.7827 1.54305 11 2.1 11H11.9C12.457 11 12.9911 10.7827 13.3849 10.3959C13.7788 10.0091 14 9.48451 14 8.9375V2.0625C14 1.51549 13.7788 0.990886 13.3849 0.604092C12.9911 0.217299 12.457 0 11.9 0ZM11.431 1.375L7 4.64062L2.569 1.375H11.431ZM11.9 9.625H2.1C1.91435 9.625 1.7363 9.55257 1.60503 9.42364C1.47375 9.29471 1.4 9.11984 1.4 8.9375V2.23438L6.58 6.05C6.70117 6.13925 6.84854 6.1875 7 6.1875C7.15146 6.1875 7.29883 6.13925 7.42 6.05L12.6 2.23438V8.9375C12.6 9.11984 12.5263 9.29471 12.395 9.42364C12.2637 9.55257 12.0857 9.625 11.9 9.625Z" fill="white"/>
</svg>
