<svg width="6" height="6" viewBox="0 0 6 6" fill="none" xmlns="http://www.w3.org/2000/svg">
<path d="M3 0C2.40666 0 1.82664 0.175947 1.33329 0.505591C0.839943 0.835235 0.455426 1.30377 0.228363 1.85195C0.00129985 2.40013 -0.0581101 3.00333 0.0576455 3.58527C0.173401 4.16721 0.459124 4.70176 0.878681 5.12132C1.29824 5.54088 1.83279 5.8266 2.41473 5.94235C2.99667 6.05811 3.59987 5.9987 4.14805 5.77164C4.69623 5.54457 5.16476 5.16006 5.49441 4.66671C5.82405 4.17336 6 3.59334 6 3C6 2.20435 5.68393 1.44129 5.12132 0.87868C4.55871 0.316071 3.79565 0 3 0ZM3 4.28571C2.74571 4.28571 2.49713 4.21031 2.2857 4.06903C2.07426 3.92776 1.90947 3.72695 1.81216 3.49202C1.71484 3.25709 1.68938 2.99857 1.73899 2.74917C1.7886 2.49976 1.91105 2.27067 2.09086 2.09086C2.27067 1.91105 2.49977 1.7886 2.74917 1.73899C2.99857 1.68938 3.25709 1.71484 3.49202 1.81215C3.72696 1.90947 3.92776 2.07426 4.06903 2.2857C4.21031 2.49713 4.28571 2.74571 4.28571 3C4.28571 3.34099 4.15026 3.66802 3.90914 3.90914C3.66802 4.15025 3.34099 4.28571 3 4.28571Z" fill="white"/>
</svg>
