<svg width="14" height="12" viewBox="0 0 14 12" fill="none" xmlns="http://www.w3.org/2000/svg">
<path fill-rule="evenodd" clip-rule="evenodd" d="M13.4615 1.77357C12.9853 1.99531 12.4744 2.14585 11.9385 2.21298C12.486 1.86715 12.9063 1.31788 13.1029 0.664859C12.5901 0.986283 12.0233 1.2182 11.4198 1.34432C10.9359 0.801159 10.2476 0.461426 9.48417 0.461426C8.02085 0.461426 6.83323 1.71457 6.83323 3.25863C6.83323 3.47834 6.85636 3.69194 6.90264 3.89537C4.69898 3.77942 2.74597 2.6646 1.43881 0.972042C1.21132 1.38501 1.08021 1.86511 1.08021 2.37776C1.08021 3.34814 1.54871 4.20459 2.26012 4.70504C1.82633 4.6908 1.41761 4.56467 1.05901 4.35513C1.05901 4.36734 1.05901 4.37751 1.05901 4.38972C1.05901 5.74458 1.97286 6.87567 3.18554 7.13199C2.96383 7.19506 2.72862 7.22964 2.48762 7.22964C2.31603 7.22964 2.15023 7.21133 1.98828 7.17878C2.32567 8.28953 3.30507 9.09919 4.46377 9.12157C3.55571 9.87223 2.41436 10.3198 1.17083 10.3198C0.956826 10.3198 0.746679 10.3055 0.53846 10.2811C1.71066 11.0745 3.10457 11.5383 4.60259 11.5383C9.47838 11.5383 12.1447 7.27643 12.1447 3.58005C12.1447 3.45799 12.1428 3.33797 12.137 3.21794C12.6557 2.82328 13.1049 2.33097 13.4596 1.7695L13.4615 1.77357Z" fill="white"/>
</svg>
