<svg width="255" height="124" viewBox="0 0 255 124" fill="none" xmlns="http://www.w3.org/2000/svg">
<path d="M85.4 55.16C86.9467 55.0533 88.3133 55 89.5 55C92.7933 55 94.44 56.1 94.44 58.3C94.44 59.1267 94.2 59.84 93.72 60.44C93.24 61.0267 92.4733 61.4267 91.42 61.64C92.4333 61.76 93.2333 62.0667 93.82 62.56C94.4067 63.0533 94.7 63.9133 94.7 65.14C94.7 67.7133 93.0533 69 89.76 69H85.4V55.16ZM87.06 68.8H89.76C90.9467 68.8 91.7867 68.4933 92.28 67.88C92.7867 67.2533 93.04 66.3 93.04 65.02C93.04 63.74 92.7867 62.8867 92.28 62.46C91.7733 62.0333 91.02 61.8067 90.02 61.78H87.06V68.8ZM89.5 55.2C88.7267 55.2 87.9133 55.2467 87.06 55.34V61.58H90.02C91.9 61.5 92.84 60.42 92.84 58.34C92.84 57.3267 92.56 56.5533 92 56.02C91.44 55.4733 90.6067 55.2 89.5 55.2ZM100.946 69.08C99.5463 69.08 98.4063 68.68 97.5263 67.88C96.6463 67.08 96.2063 65.8467 96.2063 64.18C96.2063 62.5133 96.6596 61.22 97.5663 60.3C98.4863 59.38 99.6463 58.92 101.046 58.92C102.46 58.92 103.606 59.32 104.486 60.12C105.366 60.92 105.806 62.1533 105.806 63.82C105.806 65.4867 105.346 66.78 104.426 67.7C103.52 68.62 102.36 69.08 100.946 69.08ZM101.086 59.08C100.073 59.08 99.2329 59.5333 98.5663 60.44C97.8996 61.3333 97.5663 62.5867 97.5663 64.2C97.5663 65.8 97.8729 66.9867 98.4863 67.76C99.0996 68.5333 99.9129 68.92 100.926 68.92C101.94 68.92 102.78 68.4733 103.446 67.58C104.113 66.6733 104.446 65.42 104.446 63.82C104.446 62.2067 104.14 61.0133 103.526 60.24C102.913 59.4667 102.1 59.08 101.086 59.08ZM112.138 69.08C110.738 69.08 109.598 68.68 108.718 67.88C107.838 67.08 107.398 65.8467 107.398 64.18C107.398 62.5133 107.851 61.22 108.758 60.3C109.678 59.38 110.838 58.92 112.238 58.92C113.651 58.92 114.798 59.32 115.678 60.12C116.558 60.92 116.998 62.1533 116.998 63.82C116.998 65.4867 116.538 66.78 115.618 67.7C114.711 68.62 113.551 69.08 112.138 69.08ZM112.278 59.08C111.264 59.08 110.424 59.5333 109.758 60.44C109.091 61.3333 108.758 62.5867 108.758 64.2C108.758 65.8 109.064 66.9867 109.678 67.76C110.291 68.5333 111.104 68.92 112.118 68.92C113.131 68.92 113.971 68.4733 114.638 67.58C115.304 66.6733 115.638 65.42 115.638 63.82C115.638 62.2067 115.331 61.0133 114.718 60.24C114.104 59.4667 113.291 59.08 112.278 59.08ZM119.798 54V63.96L124.198 59H124.398L121.138 62.68L125.438 69H124.038L120.338 63.56L119.798 64.18V69H118.398V54H119.798ZM133.665 69H133.405V55H134.085L142.405 67.94V55H142.665V69H141.205L133.665 57.4V69ZM149.501 69.08C148.101 69.08 146.961 68.68 146.081 67.88C145.201 67.08 144.761 65.8467 144.761 64.18C144.761 62.5133 145.214 61.22 146.121 60.3C147.041 59.38 148.201 58.92 149.601 58.92C151.014 58.92 152.161 59.32 153.041 60.12C153.921 60.92 154.361 62.1533 154.361 63.82C154.361 65.4867 153.901 66.78 152.981 67.7C152.074 68.62 150.914 69.08 149.501 69.08ZM149.641 59.08C148.628 59.08 147.788 59.5333 147.121 60.44C146.454 61.3333 146.121 62.5867 146.121 64.2C146.121 65.8 146.428 66.9867 147.041 67.76C147.654 68.5333 148.468 68.92 149.481 68.92C150.494 68.92 151.334 68.4733 152.001 67.58C152.668 66.6733 153.001 65.42 153.001 63.82C153.001 62.2067 152.694 61.0133 152.081 60.24C151.468 59.4667 150.654 59.08 149.641 59.08ZM169.127 59.12L169.247 59C169.3 59.0267 169.367 59.1067 169.447 59.24C169.54 59.3733 169.594 59.4933 169.607 59.6C169.634 59.7067 169.647 59.8067 169.647 59.9C169.647 60.26 169.567 60.6267 169.407 61L165.767 69H165.567L162.687 61.26L159.167 69H158.967L155.247 59H156.647L159.707 67.28L162.587 61.02L161.847 59H163.247L166.307 67.28L169.207 61C169.367 60.72 169.447 60.3867 169.447 60C169.447 59.6133 169.34 59.32 169.127 59.12Z" fill="white"/>
</svg>
