<svg width="165" height="57" viewBox="0 0 165 57" fill="none" xmlns="http://www.w3.org/2000/svg">
<path d="M77.548 22.22L82.12 33.434L86.674 22.22H87.988L82.696 35H81.544L76.234 22.22H77.548ZM89.5668 35V25.622H90.7908V35H89.5668ZM89.5668 23.66V21.86H90.7908V23.66H89.5668ZM97.5367 35.18C96.8647 35.18 96.2407 35.054 95.6647 34.802C95.0887 34.538 94.5907 34.184 94.1707 33.74C93.7507 33.284 93.4207 32.762 93.1807 32.174C92.9527 31.586 92.8387 30.956 92.8387 30.284C92.8387 29.408 93.0367 28.604 93.4327 27.872C93.8407 27.14 94.3987 26.558 95.1067 26.126C95.8147 25.682 96.6187 25.46 97.5187 25.46C98.4427 25.46 99.2467 25.682 99.9307 26.126C100.627 26.57 101.173 27.158 101.569 27.89C101.965 28.61 102.163 29.402 102.163 30.266C102.163 30.362 102.163 30.458 102.163 30.554C102.163 30.638 102.157 30.704 102.145 30.752H94.1167C94.1767 31.424 94.3627 32.024 94.6747 32.552C94.9987 33.068 95.4127 33.482 95.9167 33.794C96.4327 34.094 96.9907 34.244 97.5907 34.244C98.2027 34.244 98.7787 34.088 99.3187 33.776C99.8707 33.464 100.255 33.056 100.471 32.552L101.533 32.84C101.341 33.284 101.047 33.686 100.651 34.046C100.255 34.406 99.7867 34.688 99.2467 34.892C98.7187 35.084 98.1487 35.18 97.5367 35.18ZM94.0807 29.87H101.011C100.963 29.186 100.777 28.586 100.453 28.07C100.141 27.554 99.7267 27.152 99.2107 26.864C98.7067 26.564 98.1487 26.414 97.5367 26.414C96.9247 26.414 96.3667 26.564 95.8627 26.864C95.3587 27.152 94.9447 27.56 94.6207 28.088C94.3087 28.604 94.1287 29.198 94.0807 29.87ZM115.613 25.622H116.819L112.787 35H111.725L109.763 30.338L107.819 35H106.757L102.725 25.622H103.913L107.333 33.74L109.061 29.51L107.477 25.64H108.575L109.763 28.682L110.969 25.64H112.049L110.483 29.51L112.211 33.74L115.613 25.622ZM136.476 35H135.252V29.762C135.252 28.67 135.078 27.866 134.73 27.35C134.382 26.834 133.866 26.576 133.182 26.576C132.474 26.576 131.838 26.828 131.274 27.332C130.722 27.836 130.332 28.484 130.104 29.276V35H128.88V29.762C128.88 28.658 128.712 27.854 128.376 27.35C128.04 26.834 127.524 26.576 126.828 26.576C126.132 26.576 125.502 26.822 124.938 27.314C124.374 27.806 123.978 28.454 123.75 29.258V35H122.526V25.622H123.642V27.746C124.038 27.014 124.542 26.45 125.154 26.054C125.778 25.658 126.468 25.46 127.224 25.46C128.004 25.46 128.634 25.682 129.114 26.126C129.594 26.57 129.888 27.152 129.996 27.872C130.428 27.08 130.944 26.48 131.544 26.072C132.156 25.664 132.846 25.46 133.614 25.46C134.142 25.46 134.586 25.556 134.946 25.748C135.318 25.94 135.612 26.216 135.828 26.576C136.056 26.924 136.218 27.35 136.314 27.854C136.422 28.346 136.476 28.898 136.476 29.51V35ZM143.063 35.18C142.391 35.18 141.767 35.054 141.191 34.802C140.627 34.538 140.135 34.184 139.715 33.74C139.307 33.284 138.989 32.768 138.761 32.192C138.533 31.604 138.419 30.986 138.419 30.338C138.419 29.666 138.533 29.042 138.761 28.466C138.989 27.878 139.313 27.362 139.733 26.918C140.153 26.462 140.645 26.108 141.209 25.856C141.785 25.592 142.409 25.46 143.081 25.46C143.753 25.46 144.371 25.592 144.935 25.856C145.499 26.108 145.991 26.462 146.411 26.918C146.831 27.362 147.155 27.878 147.383 28.466C147.611 29.042 147.725 29.666 147.725 30.338C147.725 30.986 147.611 31.604 147.383 32.192C147.155 32.768 146.831 33.284 146.411 33.74C146.003 34.184 145.511 34.538 144.935 34.802C144.371 35.054 143.747 35.18 143.063 35.18ZM139.661 30.356C139.661 31.052 139.811 31.688 140.111 32.264C140.423 32.828 140.837 33.278 141.353 33.614C141.869 33.938 142.439 34.1 143.063 34.1C143.687 34.1 144.257 33.932 144.773 33.596C145.289 33.26 145.703 32.804 146.015 32.228C146.327 31.64 146.483 31.004 146.483 30.32C146.483 29.624 146.327 28.988 146.015 28.412C145.703 27.836 145.289 27.38 144.773 27.044C144.257 26.708 143.687 26.54 143.063 26.54C142.439 26.54 141.869 26.714 141.353 27.062C140.849 27.41 140.441 27.872 140.129 28.448C139.817 29.012 139.661 29.648 139.661 30.356ZM154.452 26.702C153.636 26.726 152.916 26.954 152.292 27.386C151.68 27.818 151.248 28.412 150.996 29.168V35H149.772V25.622H150.924V27.872C151.248 27.212 151.674 26.678 152.202 26.27C152.742 25.862 153.312 25.634 153.912 25.586C154.032 25.574 154.134 25.568 154.218 25.568C154.314 25.568 154.392 25.574 154.452 25.586V26.702ZM159.834 35.18C159.162 35.18 158.538 35.054 157.962 34.802C157.386 34.538 156.888 34.184 156.468 33.74C156.048 33.284 155.718 32.762 155.478 32.174C155.25 31.586 155.136 30.956 155.136 30.284C155.136 29.408 155.334 28.604 155.73 27.872C156.138 27.14 156.696 26.558 157.404 26.126C158.112 25.682 158.916 25.46 159.816 25.46C160.74 25.46 161.544 25.682 162.228 26.126C162.924 26.57 163.47 27.158 163.866 27.89C164.262 28.61 164.46 29.402 164.46 30.266C164.46 30.362 164.46 30.458 164.46 30.554C164.46 30.638 164.454 30.704 164.442 30.752H156.414C156.474 31.424 156.66 32.024 156.972 32.552C157.296 33.068 157.71 33.482 158.214 33.794C158.73 34.094 159.288 34.244 159.888 34.244C160.5 34.244 161.076 34.088 161.616 33.776C162.168 33.464 162.552 33.056 162.768 32.552L163.83 32.84C163.638 33.284 163.344 33.686 162.948 34.046C162.552 34.406 162.084 34.688 161.544 34.892C161.016 35.084 160.446 35.18 159.834 35.18ZM156.378 29.87H163.308C163.26 29.186 163.074 28.586 162.75 28.07C162.438 27.554 162.024 27.152 161.508 26.864C161.004 26.564 160.446 26.414 159.834 26.414C159.222 26.414 158.664 26.564 158.16 26.864C157.656 27.152 157.242 27.56 156.918 28.088C156.606 28.604 156.426 29.198 156.378 29.87Z" fill="#424454"/>
<path d="M56.5 28.5C56.5 32.177 55.7758 35.818 54.3686 39.2151C52.9615 42.6123 50.899 45.6989 48.299 48.299C45.6989 50.899 42.6123 52.9615 39.2151 54.3686C35.818 55.7758 32.177 56.5 28.5 56.5C24.823 56.5 21.182 55.7758 17.7849 54.3686C14.3877 52.9615 11.301 50.899 8.70101 48.299C6.10097 45.6989 4.0385 42.6123 2.63137 39.2151C1.22424 35.818 0.5 32.177 0.5 28.5C0.5 24.823 1.22424 21.182 2.63137 17.7849C4.03851 14.3877 6.10097 11.301 8.70101 8.70101C11.3011 6.10097 14.3878 4.0385 17.7849 2.63137C21.182 1.22424 24.823 0.5 28.5 0.5C32.177 0.5 35.818 1.22424 39.2151 2.63137C42.6123 4.03851 45.699 6.10097 48.299 8.70101C50.899 11.3011 52.9615 14.3878 54.3686 17.7849C55.7758 21.182 56.5 24.823 56.5 28.5L56.5 28.5Z" stroke="#424454"/>
<path d="M21 29H37M37 29L29 21M37 29L29 37" stroke="#424454" stroke-linecap="square" stroke-linejoin="bevel"/>
</svg>
