<svg width="20" height="14" viewBox="0 0 20 14" fill="none" xmlns="http://www.w3.org/2000/svg">
<path d="M8.36 -9.53674e-07V0.199999H2.06V6.2H7.9V6.4H2.06V13.8H8.8V14H0.4V-9.53674e-07H8.36ZM18.4125 14C17.8658 14 17.4458 13.88 17.1525 13.64C16.8725 13.4 16.7258 13.16 16.7125 12.92L16.6925 12.58V6.3C16.6925 5.24667 16.4192 4.57333 15.8725 4.28C15.5925 4.14667 15.2458 4.08 14.8325 4.08C13.9792 4.08 13.2125 4.42 12.5325 5.1C11.8525 5.76667 11.5125 6.36667 11.5125 6.9V14H10.1125V4H11.5125V6.28C11.7392 5.70667 12.1592 5.17333 12.7725 4.68C13.3858 4.17333 14.0592 3.92 14.7925 3.92C15.5258 3.92 16.1192 3.99333 16.5725 4.14C17.0392 4.27333 17.3792 4.46667 17.5925 4.72C17.9258 5.13333 18.0925 5.66667 18.0925 6.32V12.58C18.0925 12.9667 18.1658 13.2667 18.3125 13.48C18.4725 13.68 18.6325 13.7867 18.7925 13.8L19.0125 13.84H19.6325V14H18.4125Z" fill="white"/>
</svg>
