<svg width="270" height="44" viewBox="0 0 270 44" fill="none" xmlns="http://www.w3.org/2000/svg">
<path d="M15.5359 4.5758V9.40473C15.5359 10.7937 15.5761 11.7413 15.6565 12.2476C15.7503 12.7538 15.8776 13.0719 16.0384 13.2017C16.3466 13.4483 16.8356 13.5716 17.5056 13.5716L17.5457 13.8053H12.1594L12.1996 13.5716C12.8562 13.5716 13.3385 13.4548 13.6467 13.2211C13.9013 13.0264 14.0487 12.3904 14.0889 11.3129C14.1157 10.8846 14.129 10.2485 14.129 9.40473V1.16829L8.50155 13.6106L2.69316 3.0765V9.36578C2.69316 10.6639 2.75346 11.605 2.87405 12.1892C3.00803 12.7603 3.21572 13.1368 3.49709 13.3185C3.77847 13.4872 4.24742 13.5716 4.90397 13.5716L4.94416 13.8053H0L0.0401964 13.5716C0.535953 13.5716 0.90442 13.5392 1.1456 13.4743C1.40018 13.3964 1.61456 13.2017 1.78874 12.8901C1.96293 12.5786 2.07012 12.1632 2.11031 11.6439C2.16391 11.1247 2.19071 10.3653 2.19071 9.36578V4.59527C2.19071 3.59574 2.16391 2.83635 2.11031 2.31711C2.07012 1.79787 1.96293 1.38248 1.78874 1.07093C1.61456 0.759388 1.40018 0.571164 1.1456 0.506259C0.90442 0.428373 0.535953 0.38943 0.0401964 0.38943L0 0.175243H2.69316L8.90351 11.5271L14.0286 0.175243H17.5457L17.5056 0.38943C16.8356 0.38943 16.3466 0.51275 16.0384 0.759389C15.7034 1.03199 15.5359 2.30413 15.5359 4.5758Z" fill="white"/>
<path d="M37.0939 13.5716C37.6031 13.5716 37.9582 13.5327 38.1591 13.4548C38.3735 13.3769 38.4807 13.1757 38.4807 12.8512C38.4807 12.5267 38.1256 11.4233 37.4155 9.54103H31.2855C30.7094 11.1896 30.4213 12.2281 30.4213 12.6565C30.4213 13.0719 30.5285 13.3315 30.7429 13.4353C30.9707 13.5262 31.3726 13.5716 31.9488 13.5716L31.989 13.8053H27.4669L27.5071 13.5716C27.8956 13.5716 28.1971 13.5392 28.4115 13.4743C28.6393 13.4094 28.8805 13.2406 29.135 12.968C29.403 12.6824 29.6576 12.2735 29.8988 11.7413C30.1399 11.2091 30.428 10.4627 30.763 9.50208L32.5517 4.49791C33.1815 2.7325 33.4963 1.66157 33.4963 1.28512C33.4963 0.90867 33.4026 0.668521 33.215 0.564674C33.0274 0.447845 32.6656 0.38943 32.1297 0.38943L32.0895 0.175243H35.4057L38.9631 9.50208C39.566 11.0468 39.968 12.0269 40.169 12.4423C40.3833 12.8577 40.5843 13.1238 40.7719 13.2406C41.1069 13.4613 41.5289 13.5716 42.0381 13.5716L42.0783 13.8053H37.0537L37.0939 13.5716ZM34.2802 1.2267L31.4463 9.07371H37.2547L34.2802 1.2267Z" fill="white"/>
<path d="M62.2825 13.8053C61.9475 13.8053 61.6126 13.643 61.2776 13.3185C60.956 12.981 60.6612 12.5656 60.3933 12.0723C60.1387 11.579 59.8372 11.0468 59.4888 10.4757C59.1405 9.89151 58.7921 9.34631 58.4437 8.84005C58.0954 8.3338 57.6532 7.90542 57.1173 7.55494C56.5813 7.20445 56.0119 7.01623 55.4089 6.99026V9.40473C55.4089 10.8067 55.4491 11.7608 55.5295 12.267C55.6233 12.7603 55.7506 13.0719 55.9114 13.2017C56.2329 13.4483 56.7287 13.5716 57.3986 13.5716L57.4388 13.8053H52.0525L52.0927 13.5716C52.7492 13.5716 53.2316 13.4548 53.5398 13.2211C53.7944 13.0264 53.9417 12.3904 53.9819 11.3129C54.0087 10.8846 54.0221 10.2485 54.0221 9.40473V4.47844C54.0221 3.03755 53.9819 2.08345 53.9015 1.61613C53.8211 1.14882 53.7006 0.856746 53.5398 0.739917C53.2316 0.51924 52.7492 0.408902 52.0927 0.408902L52.0525 0.175243H56.7153C60.0918 0.175243 61.78 1.27863 61.78 3.4854C61.78 4.43301 61.4317 5.23134 60.7349 5.88039C60.0516 6.51646 59.2209 6.88642 58.2428 6.99026C59.2209 7.54845 60.1253 8.57395 60.956 10.0668C61.2776 10.6509 61.6193 11.2091 61.981 11.7413C62.7716 12.9615 63.7899 13.5716 65.0359 13.5716L65.0762 13.8053H62.2825ZM55.4089 0.623088V6.60083H56.6751C57.6934 6.60083 58.5375 6.3477 59.2075 5.84145C59.8774 5.33519 60.2124 4.58229 60.2124 3.58275C60.2124 1.60964 59.0467 0.623088 56.7153 0.623088H55.4089Z" fill="white"/>
<path d="M80.6515 9.40473C80.6515 11.3259 80.7654 12.4942 80.9932 12.9096C81.0736 13.0654 81.2142 13.2017 81.4152 13.3185C81.6162 13.4353 81.8306 13.5067 82.0584 13.5327C82.2861 13.5586 82.601 13.5716 83.003 13.5716L83.0432 13.8053H76.8529L76.8931 13.5716C77.2951 13.5716 77.61 13.5651 77.8377 13.5522C78.0789 13.5262 78.2933 13.4483 78.4809 13.3185C78.6819 13.1887 78.8225 13.0524 78.9029 12.9096C78.9967 12.7668 79.0704 12.5137 79.124 12.1502C79.2044 11.7089 79.2446 10.7937 79.2446 9.40473V8.17802L76.9936 4.49791C76.3639 3.45943 75.8949 2.70654 75.5867 2.23922C75.2786 1.75892 74.9637 1.363 74.6421 1.05146C74.3205 0.739917 74.0526 0.558183 73.8382 0.506259C73.6372 0.441354 73.3357 0.408902 72.9338 0.408902L72.8936 0.175243H77.898L77.8578 0.408902C77.4157 0.408902 77.1008 0.441354 76.9132 0.506259C76.739 0.558183 76.6519 0.687993 76.6519 0.895688C76.6519 1.12935 76.7323 1.39546 76.8931 1.69402C77.0673 1.99258 77.1812 2.19379 77.2348 2.29764C77.2884 2.40148 77.3755 2.55726 77.4961 2.76495C77.6167 2.95967 77.7171 3.12193 77.7975 3.25174C78.1593 3.87483 78.4072 4.29022 78.5412 4.49791L80.35 7.51599L81.8976 4.49791C82.8221 2.65461 83.2844 1.51229 83.2844 1.07093C83.2844 0.78535 83.1839 0.603616 82.9829 0.52573C82.7953 0.447845 82.4469 0.408902 81.9378 0.408902L81.8976 0.175243H86.3996L86.3594 0.408902C85.7296 0.408902 85.2004 0.512749 84.7716 0.720445C84.4501 0.876217 83.9945 1.49281 83.405 2.57024C83.1772 2.98563 82.8422 3.62819 82.4 4.49791L80.6515 7.96384V9.40473Z" fill="white"/>
<path d="M107.175 13.8053H97.5682L97.6084 13.5716C97.93 13.5716 98.1846 13.5586 98.3722 13.5327C98.5731 13.5067 98.754 13.4353 98.9148 13.3185C99.0756 13.2017 99.1895 13.0719 99.2565 12.9291C99.3369 12.7733 99.4039 12.5202 99.4575 12.1697C99.5245 11.7153 99.558 10.7937 99.558 9.40473V4.5758C99.558 2.64163 99.4642 1.46685 99.2766 1.05146C99.1024 0.687993 98.8076 0.480297 98.3923 0.428373C98.1913 0.402411 97.93 0.38943 97.6084 0.38943L97.5682 0.175243H102.975L102.934 0.38943C102.265 0.38943 101.775 0.51275 101.467 0.759389C101.132 1.03199 100.965 2.30413 100.965 4.5758V9.6968C100.965 11.0987 101.012 12.0334 101.106 12.5007C101.199 12.955 101.42 13.2601 101.769 13.4159C105.226 13.4159 106.954 12.6175 106.954 11.0209L107.175 10.9819V13.8053Z" fill="white"/>
<path d="M128.453 13.8053H118.324L118.364 13.5716C119.034 13.5716 119.523 13.4483 119.831 13.2017C120.166 12.9291 120.334 11.6634 120.334 9.40473V4.5758C120.334 3.18683 120.287 2.23922 120.193 1.73296C120.113 1.21372 119.992 0.889198 119.831 0.759389C119.523 0.51275 119.034 0.38943 118.364 0.38943L118.324 0.175243H127.71V2.97914L127.469 2.94019C127.469 2.07047 126.993 1.46685 126.042 1.12935C125.104 0.791841 123.663 0.623088 121.72 0.623088V6.75661C123.007 6.75661 123.931 6.6917 124.494 6.56189C125.057 6.43208 125.419 6.23737 125.579 5.97775C125.74 5.70515 125.821 5.2573 125.821 4.63421L126.042 4.59527V9.32684L125.821 9.2879C125.821 8.65183 125.74 8.20399 125.579 7.94437C125.419 7.68475 125.057 7.49652 124.494 7.37969C123.931 7.24988 123.007 7.18498 121.72 7.18498V9.6968C121.72 11.0728 121.767 11.9879 121.861 12.4423C121.968 12.8966 122.196 13.2017 122.545 13.3574C126.323 13.3574 128.212 12.5786 128.212 11.0209L128.453 10.9819V13.8053Z" fill="white"/>
<path d="M150.827 9.98887C150.827 11.287 150.311 12.2476 149.279 12.8707C148.261 13.4937 146.861 13.8053 145.079 13.8053H140.356L140.396 13.5716C140.731 13.5716 140.992 13.5586 141.18 13.5327C141.367 13.5067 141.542 13.4353 141.702 13.3185C141.877 13.2017 141.997 13.0719 142.064 12.9291C142.145 12.7733 142.212 12.5202 142.265 12.1697C142.332 11.7153 142.366 10.7937 142.366 9.40473V4.5758C142.366 2.62865 142.272 1.46036 142.084 1.07093C142.004 0.91516 141.877 0.77886 141.702 0.662031C141.542 0.545202 141.367 0.473807 141.18 0.447844C140.992 0.421883 140.731 0.408902 140.396 0.408902L140.356 0.175243H144.858C145.849 0.175243 146.854 0.343996 147.872 0.681503C148.449 0.863236 148.918 1.18127 149.279 1.63561C149.641 2.07696 149.822 2.61567 149.822 3.25174C149.822 4.12146 149.5 4.80297 148.857 5.29624C148.214 5.78952 147.444 6.13352 146.546 6.32823C147.591 6.43208 148.529 6.74363 149.36 7.26286C149.802 7.54845 150.157 7.9249 150.425 8.39221C150.693 8.85953 150.827 9.39175 150.827 9.98887ZM148.073 3.25174C148.073 1.4993 146.64 0.623088 143.772 0.623088V6.19193H143.953C146.7 6.19193 148.073 5.21187 148.073 3.25174ZM149.078 9.98887C149.078 7.7172 147.41 6.58136 144.074 6.58136H143.772V9.6968C143.772 11.1117 143.813 12.0399 143.893 12.4812C143.987 12.9096 144.208 13.2017 144.556 13.3574C145.226 13.3574 145.843 13.2796 146.405 13.1238C146.981 12.968 147.437 12.7798 147.772 12.5591C148.12 12.3384 148.422 12.0074 148.676 11.5661C148.944 11.1247 149.078 10.599 149.078 9.98887Z" fill="white"/>
<path d="M169.12 0C171.277 0 172.999 0.642559 174.285 1.92768C175.585 3.19981 176.234 4.85489 176.234 6.89291C176.234 8.91794 175.605 10.612 174.345 11.975C173.099 13.325 171.404 14 169.26 14C167.117 14 165.388 13.3185 164.075 11.9555C162.775 10.5925 162.125 8.89847 162.125 6.87344C162.125 4.83542 162.748 3.18034 163.995 1.90821C165.254 0.636069 166.962 0 169.12 0ZM169.24 13.5522C170.955 13.5522 172.255 12.955 173.139 11.7608C174.037 10.5535 174.486 8.96986 174.486 7.00974C174.486 5.04961 174.017 3.46593 173.079 2.25869C172.141 1.05146 170.815 0.447844 169.1 0.447844C167.398 0.447844 166.098 1.04497 165.2 2.23922C164.316 3.43347 163.874 5.01715 163.874 6.99026C163.874 8.95039 164.343 10.5341 165.281 11.7413C166.219 12.9485 167.539 13.5522 169.24 13.5522Z" fill="white"/>
<path d="M200.201 4.55633V13.9026H199.578L190.111 2.31711V9.36578C190.111 10.6639 190.172 11.5985 190.292 12.1697C190.413 12.7408 190.614 13.1173 190.895 13.299C191.177 13.4808 191.639 13.5716 192.282 13.5716L192.322 13.8053H187.378L187.418 13.5716C188.061 13.5716 188.524 13.4808 188.805 13.299C189.086 13.1173 189.287 12.7408 189.408 12.1697C189.542 11.5985 189.609 10.6639 189.609 9.36578V4.55633C189.609 3.25823 189.542 2.33009 189.408 1.77191C189.287 1.20074 189.086 0.830783 188.805 0.662031C188.537 0.480297 188.075 0.38943 187.418 0.38943L187.378 0.175243H190.111L199.698 11.7608V4.55633C199.698 3.27121 199.631 2.34307 199.497 1.77191C199.377 1.20074 199.176 0.830783 198.894 0.662031C198.613 0.480297 198.144 0.38943 197.487 0.38943L197.447 0.175243H202.432L202.391 0.38943C201.735 0.38943 201.266 0.480297 200.985 0.662031C200.703 0.830783 200.502 1.20074 200.382 1.77191C200.261 2.34307 200.201 3.27121 200.201 4.55633Z" fill="white"/>
<path d="M224 13.8053H213.87L213.911 13.5716C214.581 13.5716 215.07 13.4483 215.378 13.2017C215.713 12.9291 215.88 11.6634 215.88 9.40473V4.5758C215.88 3.18683 215.833 2.23922 215.74 1.73296C215.659 1.21372 215.539 0.889198 215.378 0.759389C215.07 0.51275 214.581 0.38943 213.911 0.38943L213.87 0.175243H223.256V2.97914L223.015 2.94019C223.015 2.07047 222.54 1.46685 221.588 1.12935C220.65 0.791841 219.21 0.623088 217.267 0.623088V6.75661C218.553 6.75661 219.478 6.6917 220.041 6.56189C220.603 6.43208 220.965 6.23737 221.126 5.97775C221.287 5.70515 221.367 5.2573 221.367 4.63421L221.588 4.59527V9.32684L221.367 9.2879C221.367 8.65183 221.287 8.20399 221.126 7.94437C220.965 7.68475 220.603 7.49652 220.041 7.37969C219.478 7.24988 218.553 7.18498 217.267 7.18498V9.6968C217.267 11.0728 217.314 11.9879 217.408 12.4423C217.515 12.8966 217.743 13.2017 218.091 13.3574C221.87 13.3574 223.759 12.5786 223.759 11.0209L224 10.9819V13.8053Z" fill="white"/>
<path d="M242.4 4.52V9.48C242.4 10.9067 242.44 11.88 242.52 12.4C242.613 12.92 242.74 13.2467 242.9 13.38C243.207 13.6333 243.693 13.76 244.36 13.76L244.4 14H239L239.04 13.76C239.373 13.76 239.633 13.7467 239.82 13.72C240.007 13.6933 240.18 13.62 240.34 13.5C240.513 13.38 240.633 13.2467 240.7 13.1C240.78 12.94 240.847 12.68 240.9 12.32C240.967 11.8533 241 10.9067 241 9.48V4.52C241 3.13333 240.96 2.16667 240.88 1.62C240.8 1.07333 240.68 0.733334 240.52 0.600001C240.2 0.346667 239.707 0.220001 239.04 0.220001L239 0H244.4L244.36 0.220001C243.693 0.220001 243.207 0.346667 242.9 0.600001C242.567 0.88 242.4 2.18667 242.4 4.52Z" fill="white"/>
<path d="M249.422 4.34V7.92C249.542 6.96 249.876 6.12667 250.422 5.42C250.969 4.7 251.696 4.34 252.602 4.34C254.642 4.34 255.662 5.40667 255.662 7.54V10.7C255.662 12.0867 255.749 12.9467 255.922 13.28C256.109 13.6 256.589 13.76 257.362 13.76L257.402 14H252.542L252.582 13.76C253.382 13.76 253.862 13.5933 254.022 13.26C254.182 12.9267 254.262 12.0133 254.262 10.52V7.74C254.262 6.82 254.116 6.12667 253.822 5.66C253.542 5.19333 253.089 4.96 252.462 4.96C251.849 4.96 251.336 5.17333 250.922 5.6C250.509 6.01333 250.202 6.54 250.002 7.18C249.616 8.42 249.422 9.66667 249.422 10.92C249.422 12.1733 249.502 12.96 249.662 13.28C249.836 13.6 250.316 13.76 251.102 13.76L251.142 14H246.262L246.302 13.76C247.102 13.76 247.589 13.6 247.762 13.28C247.936 12.9467 248.022 12.0733 248.022 10.66V9.06C248.022 7.06 247.922 5.85333 247.722 5.44C247.656 5.29333 247.536 5.16 247.362 5.04C247.202 4.92 247.022 4.84667 246.822 4.82C246.636 4.79333 246.376 4.78 246.042 4.78L246.002 4.56C247.162 4.41333 248.302 4.34 249.422 4.34Z" fill="white"/>
<path d="M262.02 4.34V7.92C262.14 6.96 262.473 6.12667 263.02 5.42C263.567 4.7 264.293 4.34 265.2 4.34C267.24 4.34 268.26 5.40667 268.26 7.54V10.7C268.26 12.0867 268.347 12.9467 268.52 13.28C268.707 13.6 269.187 13.76 269.96 13.76L270 14H265.14L265.18 13.76C265.98 13.76 266.46 13.5933 266.62 13.26C266.78 12.9267 266.86 12.0133 266.86 10.52V7.74C266.86 6.82 266.713 6.12667 266.42 5.66C266.14 5.19333 265.687 4.96 265.06 4.96C264.447 4.96 263.933 5.17333 263.52 5.6C263.107 6.01333 262.8 6.54 262.6 7.18C262.213 8.42 262.02 9.66667 262.02 10.92C262.02 12.1733 262.1 12.96 262.26 13.28C262.433 13.6 262.913 13.76 263.7 13.76L263.74 14H258.86L258.9 13.76C259.7 13.76 260.187 13.6 260.36 13.28C260.533 12.9467 260.62 12.0733 260.62 10.66V9.06C260.62 7.06 260.52 5.85333 260.32 5.44C260.253 5.29333 260.133 5.16 259.96 5.04C259.8 4.92 259.62 4.84667 259.42 4.82C259.233 4.79333 258.973 4.78 258.64 4.78L258.6 4.56C259.76 4.41333 260.9 4.34 262.02 4.34Z" fill="white"/>
<path d="M113.446 38.6147V41.3741C113.446 42.4868 113.503 43.1544 113.619 43.3769C113.657 43.4659 113.723 43.5438 113.815 43.6106C113.907 43.6773 114.007 43.7181 114.115 43.733C114.23 43.7478 114.381 43.7552 114.565 43.7552L114.588 43.8887H111.472L111.495 43.7552C111.687 43.7552 111.837 43.7478 111.945 43.733C112.06 43.7181 112.164 43.6773 112.257 43.6106C112.357 43.5438 112.426 43.4696 112.464 43.388C112.511 43.299 112.549 43.1544 112.58 42.9541C112.618 42.6945 112.637 42.1678 112.637 41.3741V40.1502H107.962V41.3741C107.962 42.1678 107.985 42.7093 108.032 42.9986C108.086 43.2879 108.159 43.4696 108.251 43.5438C108.428 43.6847 108.709 43.7552 109.094 43.7552L109.117 43.8887H106L106.023 43.7552C106.215 43.7552 106.366 43.7478 106.473 43.733C106.581 43.7181 106.681 43.6773 106.773 43.6106C106.873 43.5438 106.943 43.4696 106.981 43.388C107.027 43.299 107.066 43.1544 107.097 42.9541C107.135 42.6945 107.154 42.1678 107.154 41.3741V38.6147C107.154 37.8433 107.131 37.3055 107.085 37.0014C107.039 36.6973 106.97 36.5081 106.877 36.4339C106.693 36.293 106.408 36.2225 106.023 36.2225L106 36.1001H109.117L109.094 36.2225C108.709 36.2225 108.428 36.293 108.251 36.4339C108.059 36.5897 107.962 37.3166 107.962 38.6147V39.8609H112.637V38.6147C112.637 37.5095 112.58 36.8382 112.464 36.6008C112.426 36.5118 112.357 36.4339 112.257 36.3672C112.164 36.3004 112.06 36.2596 111.945 36.2448C111.837 36.2299 111.687 36.2225 111.495 36.2225L111.472 36.1001H114.588L114.565 36.2225C114.381 36.2225 114.23 36.2299 114.115 36.2448C114.007 36.2596 113.907 36.3004 113.815 36.3672C113.723 36.4339 113.653 36.5118 113.607 36.6008C113.569 36.6898 113.534 36.8345 113.503 37.0348C113.465 37.3611 113.446 37.8878 113.446 38.6147Z" fill="white"/>
<path d="M124.259 36C125.498 36 126.487 36.3672 127.226 37.1015C127.972 37.8285 128.345 38.7742 128.345 39.9388C128.345 41.096 127.984 42.064 127.26 42.8428C126.544 43.6143 125.571 44 124.34 44C123.108 44 122.116 43.6106 121.361 42.8317C120.615 42.0529 120.242 41.0848 120.242 39.9277C120.242 38.7631 120.6 37.8173 121.315 37.0904C122.039 36.3635 123.02 36 124.259 36ZM124.328 43.7441C125.313 43.7441 126.06 43.4029 126.568 42.7204C127.083 42.0306 127.341 41.1256 127.341 40.0056C127.341 38.8855 127.072 37.9805 126.533 37.2907C125.994 36.6008 125.232 36.2559 124.247 36.2559C123.27 36.2559 122.523 36.5971 122.008 37.2796C121.5 37.962 121.246 38.8669 121.246 39.9944C121.246 41.1145 121.515 42.0195 122.054 42.7093C122.593 43.3992 123.351 43.7441 124.328 43.7441Z" fill="white"/>
<path d="M133.603 36.1001H140.252V37.7024L140.136 37.6801C140.136 36.7752 139.205 36.3227 137.343 36.3227V41.3741C137.343 42.472 137.408 43.1395 137.539 43.3769C137.585 43.4659 137.666 43.5438 137.782 43.6106C137.897 43.6773 138.02 43.7181 138.151 43.733C138.282 43.7478 138.463 43.7552 138.693 43.7552L138.717 43.8887H135.161L135.184 43.7552C135.415 43.7552 135.596 43.7515 135.727 43.7441C135.865 43.7293 135.988 43.6847 136.096 43.6106C136.212 43.5364 136.292 43.4585 136.339 43.3769C136.392 43.2953 136.439 43.1507 136.477 42.943C136.516 42.6908 136.535 42.1678 136.535 41.3741V36.3227C134.673 36.3227 133.741 36.7752 133.741 37.6801L133.603 37.7024V36.1001Z" fill="white"/>
<path d="M151.5 43.8887H145.682L145.705 43.7552C146.09 43.7552 146.371 43.6847 146.548 43.5438C146.741 43.388 146.837 42.6648 146.837 41.3741V38.6147C146.837 37.821 146.81 37.2796 146.756 36.9903C146.71 36.6936 146.641 36.5081 146.548 36.4339C146.371 36.293 146.09 36.2225 145.705 36.2225L145.682 36.1001H151.073V37.7024L150.935 37.6801C150.935 37.1831 150.661 36.8382 150.115 36.6453C149.576 36.4525 148.749 36.3561 147.633 36.3561V39.8609C148.372 39.8609 148.903 39.8238 149.226 39.7497C149.549 39.6755 149.757 39.5642 149.85 39.4159C149.942 39.2601 149.988 39.0042 149.988 38.6481L150.115 38.6259V41.3296L149.988 41.3074C149.988 40.9439 149.942 40.688 149.85 40.5396C149.757 40.3913 149.549 40.2837 149.226 40.217C148.903 40.1428 148.372 40.1057 147.633 40.1057V41.541C147.633 42.3273 147.66 42.8503 147.714 43.1099C147.776 43.3695 147.906 43.5438 148.107 43.6328C150.277 43.6328 151.362 43.1878 151.362 42.2976L151.5 42.2754V43.8887Z" fill="white"/>
<path d="M163 43.8887H157.482L157.505 43.7552C157.69 43.7552 157.836 43.7478 157.944 43.733C158.059 43.7181 158.163 43.6773 158.256 43.6106C158.348 43.5438 158.413 43.4696 158.452 43.388C158.498 43.299 158.537 43.1544 158.567 42.9541C158.606 42.6945 158.625 42.1678 158.625 41.3741V38.6147C158.625 37.5095 158.571 36.8382 158.463 36.6008C158.363 36.3931 158.194 36.2745 157.956 36.2448C157.84 36.2299 157.69 36.2225 157.505 36.2225L157.482 36.1001H160.587L160.564 36.2225C160.18 36.2225 159.899 36.293 159.722 36.4339C159.529 36.5897 159.433 37.3166 159.433 38.6147V41.541C159.433 42.3421 159.46 42.8762 159.514 43.1433C159.568 43.4029 159.695 43.5772 159.895 43.6662C161.88 43.6662 162.873 43.21 162.873 42.2976L163 42.2754V43.8887Z" fill="white"/>
<path fill-rule="evenodd" clip-rule="evenodd" d="M270 25L-8.75578e-08 25L0 24L270 24L270 25Z" fill="url(#paint0_linear_624_1822)"/>
<defs>
<linearGradient id="paint0_linear_624_1822" x1="17.0526" y1="26.4996" x2="270" y2="26.4996" gradientUnits="userSpaceOnUse">
<stop stop-color="white" stop-opacity="0"/>
<stop offset="0.476907" stop-color="white"/>
<stop offset="1" stop-color="white" stop-opacity="0"/>
</linearGradient>
</defs>
</svg>
