<svg width="24" height="24" viewBox="0 0 24 24" fill="none" xmlns="http://www.w3.org/2000/svg">
<path d="M16.05 19.4998C12.988 19.4959 10.0525 18.2777 7.8873 16.1125C5.72211 13.9474 4.50397 11.0119 4.5 7.94984C4.5 7.03484 4.86348 6.15732 5.51048 5.51032C6.15748 4.86332 7.035 4.49984 7.95 4.49984C8.14376 4.49837 8.33719 4.51595 8.5275 4.55234C8.71148 4.57957 8.89235 4.62478 9.0675 4.68734C9.19069 4.73056 9.30046 4.80519 9.38596 4.90385C9.47146 5.0025 9.52973 5.12176 9.555 5.24984L10.5825 9.74984C10.6102 9.87199 10.6069 9.99913 10.5728 10.1197C10.5387 10.2402 10.475 10.3503 10.3875 10.4398C10.29 10.5448 10.2825 10.5523 9.36 11.0323C10.0987 12.653 11.3949 13.9545 13.0125 14.6998C13.5 13.7698 13.5075 13.7623 13.6125 13.6648C13.7021 13.5773 13.8122 13.5136 13.9327 13.4795C14.0532 13.4455 14.1804 13.4421 14.3025 13.4698L18.8025 14.4973C18.9265 14.5261 19.0411 14.5859 19.1356 14.6712C19.23 14.7565 19.3012 14.8644 19.3425 14.9848C19.4058 15.1629 19.4535 15.3461 19.485 15.5323C19.5152 15.7208 19.5302 15.9114 19.53 16.1023C19.5162 17.0134 19.1425 17.882 18.4905 18.5186C17.8385 19.1551 16.9612 19.5079 16.05 19.4998ZM7.95 5.99984C7.43344 6.00182 6.93859 6.2079 6.57332 6.57317C6.20806 6.93843 6.00198 7.43328 6 7.94984C6.00199 10.6147 7.06146 13.1698 8.94577 15.0541C10.8301 16.9384 13.3852 17.9979 16.05 17.9998C16.5666 17.9979 17.0614 17.7918 17.4267 17.4265C17.7919 17.0612 17.998 16.5664 18 16.0498V15.8023L14.52 14.9998L14.3025 15.4123C13.965 16.0648 13.7175 16.5373 13.0875 16.2823C11.8447 15.8375 10.7165 15.1214 9.78505 14.186C8.85358 13.2506 8.14217 12.1195 7.7025 10.8748C7.4325 10.2898 7.9425 10.0198 8.5875 9.68234L9 9.47984L8.1975 5.99984H7.95Z" fill="white"/>
</svg>
