<svg width="288" height="78" viewBox="0 0 288 78" fill="none" xmlns="http://www.w3.org/2000/svg">
<g filter="url(#filter0_b_597_1477)">
<path d="M0 0H288V78H0V0Z" fill="white"/>
<path d="M106.404 32.544C107.796 32.448 109.026 32.4 110.094 32.4C113.058 32.4 114.54 33.39 114.54 35.37C114.54 36.114 114.324 36.756 113.892 37.296C113.46 37.824 112.77 38.184 111.822 38.376C112.734 38.484 113.454 38.76 113.982 39.204C114.51 39.648 114.774 40.422 114.774 41.526C114.774 43.842 113.292 45 110.328 45H106.404V32.544ZM107.898 44.82H110.328C111.396 44.82 112.152 44.544 112.596 43.992C113.052 43.428 113.28 42.57 113.28 41.418C113.28 40.266 113.052 39.498 112.596 39.114C112.14 38.73 111.462 38.526 110.562 38.502H107.898V44.82ZM110.094 32.58C109.398 32.58 108.666 32.622 107.898 32.706V38.322H110.562C112.254 38.25 113.1 37.278 113.1 35.406C113.1 34.494 112.848 33.798 112.344 33.318C111.84 32.826 111.09 32.58 110.094 32.58ZM120.395 45.072C119.135 45.072 118.109 44.712 117.317 43.992C116.525 43.272 116.129 42.162 116.129 40.662C116.129 39.162 116.537 37.998 117.353 37.17C118.181 36.342 119.225 35.928 120.485 35.928C121.757 35.928 122.789 36.288 123.581 37.008C124.373 37.728 124.769 38.838 124.769 40.338C124.769 41.838 124.355 43.002 123.527 43.83C122.711 44.658 121.667 45.072 120.395 45.072ZM120.521 36.072C119.609 36.072 118.853 36.48 118.253 37.296C117.653 38.1 117.353 39.228 117.353 40.68C117.353 42.12 117.629 43.188 118.181 43.884C118.733 44.58 119.465 44.928 120.377 44.928C121.289 44.928 122.045 44.526 122.645 43.722C123.245 42.906 123.545 41.778 123.545 40.338C123.545 38.886 123.269 37.812 122.717 37.116C122.165 36.42 121.433 36.072 120.521 36.072ZM130.467 45.072C129.207 45.072 128.181 44.712 127.389 43.992C126.597 43.272 126.201 42.162 126.201 40.662C126.201 39.162 126.609 37.998 127.425 37.17C128.253 36.342 129.297 35.928 130.557 35.928C131.829 35.928 132.861 36.288 133.653 37.008C134.445 37.728 134.841 38.838 134.841 40.338C134.841 41.838 134.427 43.002 133.599 43.83C132.783 44.658 131.739 45.072 130.467 45.072ZM130.593 36.072C129.681 36.072 128.925 36.48 128.325 37.296C127.725 38.1 127.425 39.228 127.425 40.68C127.425 42.12 127.701 43.188 128.253 43.884C128.805 44.58 129.537 44.928 130.449 44.928C131.361 44.928 132.117 44.526 132.717 43.722C133.317 42.906 133.617 41.778 133.617 40.338C133.617 38.886 133.341 37.812 132.789 37.116C132.237 36.42 131.505 36.072 130.593 36.072ZM137.362 31.5V40.464L141.322 36H141.502L138.568 39.312L142.438 45H141.178L137.848 40.104L137.362 40.662V45H136.102V31.5H137.362ZM149.842 45H149.608V32.4H150.22L157.708 44.046V32.4H157.942V45H156.628L149.842 34.56V45ZM164.094 45.072C162.834 45.072 161.808 44.712 161.016 43.992C160.224 43.272 159.828 42.162 159.828 40.662C159.828 39.162 160.236 37.998 161.052 37.17C161.88 36.342 162.924 35.928 164.184 35.928C165.456 35.928 166.488 36.288 167.28 37.008C168.072 37.728 168.468 38.838 168.468 40.338C168.468 41.838 168.054 43.002 167.226 43.83C166.41 44.658 165.366 45.072 164.094 45.072ZM164.22 36.072C163.308 36.072 162.552 36.48 161.952 37.296C161.352 38.1 161.052 39.228 161.052 40.68C161.052 42.12 161.328 43.188 161.88 43.884C162.432 44.58 163.164 44.928 164.076 44.928C164.988 44.928 165.744 44.526 166.344 43.722C166.944 42.906 167.244 41.778 167.244 40.338C167.244 38.886 166.968 37.812 166.416 37.116C165.864 36.42 165.132 36.072 164.22 36.072ZM181.758 36.108L181.866 36C181.914 36.024 181.974 36.096 182.046 36.216C182.13 36.336 182.178 36.444 182.19 36.54C182.214 36.636 182.226 36.726 182.226 36.81C182.226 37.134 182.154 37.464 182.01 37.8L178.734 45H178.554L175.962 38.034L172.794 45H172.614L169.266 36H170.526L173.28 43.452L175.872 37.818L175.206 36H176.466L179.22 43.452L181.83 37.8C181.974 37.548 182.046 37.248 182.046 36.9C182.046 36.552 181.95 36.288 181.758 36.108Z" fill="#424454"/>
<path d="M0 0V-1H-1V0H0ZM288 0H289V-1H288V0ZM288 78V79H289V78H288ZM0 78H-1V79H0V78ZM0 1H288V-1H0V1ZM287 0V78H289V0H287ZM288 77H0V79H288V77ZM1 78V0H-1V78H1Z" fill="#A18F88"/>
</g>
<defs>
<filter id="filter0_b_597_1477" x="-7" y="-7" width="302" height="92" filterUnits="userSpaceOnUse" color-interpolation-filters="sRGB">
<feFlood flood-opacity="0" result="BackgroundImageFix"/>
<feGaussianBlur in="BackgroundImage" stdDeviation="3.5"/>
<feComposite in2="SourceAlpha" operator="in" result="effect1_backgroundBlur_597_1477"/>
<feBlend mode="normal" in="SourceGraphic" in2="effect1_backgroundBlur_597_1477" result="shape"/>
</filter>
</defs>
</svg>
